# This file uses centimeters as units for non-parametric coordinates.

mtllib ArmTorch.mtl
g default
v 6.671934 3.531215 -1.208166
v 6.653691 3.490491 -0.387887
v 6.650470 2.773051 -1.269099
v 6.632228 2.735264 -0.231245
v 7.275246 3.004180 -1.095381
v 7.234789 3.001561 -0.469181
v 6.749930 2.687201 -0.353072
v 6.790388 2.687576 -1.145470
v 7.601568 1.803016 -1.117238
v 7.501500 2.114369 -0.647863
v 7.016925 1.954061 -0.479901
v 7.133560 1.558311 -1.074031
v 7.768071 1.556557 -1.005720
v 7.647212 1.934577 -0.442571
v 7.043508 1.779523 -0.268678
v 7.184317 1.299865 -0.982069
v 7.917863 0.955235 -0.400216
v 7.844419 1.184952 -0.058001
v 7.477559 1.090728 0.047671
v 7.563127 0.799249 -0.385844
v 7.845742 0.947853 -0.332029
v 7.796306 1.088332 -0.029862
v 7.548844 0.968811 0.143814
v 7.457615 0.988965 -0.284359
v 7.869750 0.572010 -0.151949
v 7.904699 0.692964 0.093619
v 7.663245 0.577450 0.158910
v 7.588401 0.572838 -0.181867
v 7.714499 1.100322 -0.042231
v 7.563073 1.061778 0.001115
v 7.638355 0.896383 0.123002
v 7.789783 0.934927 0.079655
v 7.778252 1.127497 0.263004
v 7.682631 1.112322 0.288963
v 7.709625 0.982652 0.316394
v 7.805245 0.997828 0.290436
v 7.803802 1.084159 0.416638
v 7.756835 1.068285 0.434934
v 7.762063 1.007861 0.397427
v 7.809031 1.023736 0.379130
v 7.720768 0.284584 0.169216
v 7.742722 0.344837 0.298341
v 7.655678 0.366587 0.335598
v 7.625487 0.290628 0.172571
v 7.820335 0.518138 0.206487
v 7.783969 0.409457 -0.026097
v 7.610171 0.420725 -0.059394
v 7.685870 0.518442 0.244314
v 7.160767 0.905897 -0.298567
v 7.266986 0.893947 0.036921
v 7.306544 0.497974 -0.288760
v 7.381387 0.502586 0.052017
v 7.548844 0.848706 0.754453
v 7.663245 0.396874 0.696367
v 7.266986 0.843666 0.752446
v 7.381387 0.380559 0.710058
v 7.834322 1.018409 1.024667
v 7.840757 0.186951 0.774651
v 7.041642 1.018052 1.025559
v 7.076777 0.199173 0.776250
v 7.834322 0.923018 1.329447
v 7.840757 0.102629 1.085937
v 7.041642 0.921971 1.326033
v 7.076777 0.084977 1.074166
vt 0.124644 0.359299
vt 0.125325 0.382199
vt 0.108068 0.388186
vt 0.106930 0.359296
vt 0.636365 0.506288
vt 0.702705 0.497340
vt 0.700487 0.518193
vt 0.649883 0.525462
vt 0.755013 0.514838
vt 0.752980 0.524759
vt 0.835050 0.488337
vt 0.834977 0.505183
vt 0.867942 0.480610
vt 0.862176 0.505976
vt 0.700487 0.562758
vt 0.654354 0.569386
vt 0.755270 0.571381
vt 0.840673 0.556767
vt 0.865469 0.557490
vt 0.701220 0.575322
vt 0.645726 0.583483
vt 0.757885 0.585260
vt 0.842638 0.568370
vt 0.872955 0.571991
vt 0.699868 0.617527
vt 0.666146 0.622486
vt 0.756614 0.625037
vt 0.846957 0.618889
vt 0.865381 0.621090
vt 0.701110 0.618876
vt 0.674214 0.622866
vt 0.722604 0.621681
vt 0.848021 0.620586
vt 0.829863 0.633506
vt 0.859951 0.622201
vt 0.197204 0.387976
vt 0.197528 0.434493
vt 0.177666 0.409064
vt 0.177975 0.370856
vt 0.171965 0.468201
vt 0.161725 0.470569
vt 0.157331 0.460426
vt 0.167571 0.458057
vt 0.148170 0.448355
vt 0.146920 0.389681
vt 0.127746 0.373282
vt 0.128195 0.421442
vt 0.147628 0.445137
vt 0.178555 0.437370
vt 0.136091 0.432374
vt 0.167019 0.424606
vt 0.160735 0.467698
vt 0.179169 0.461882
vt 0.149331 0.453902
vt 0.167765 0.448087
vt 0.142731 0.391133
vt 0.142379 0.363142
vt 0.114761 0.399245
vt 0.113852 0.363947
vt 0.080936 0.079931
vt 0.069547 0.086886
vt 0.090057 0.154211
vt 0.095797 0.144117
vt 0.131341 0.067249
vt 0.119952 0.074204
vt 0.140462 0.141529
vt 0.146203 0.131436
vt 0.115057 0.068763
vt 0.130757 0.144927
vt 0.063199 0.067012
vt 0.078359 0.144546
vt 0.909105 0.151664
vt 0.906036 0.067514
vt 0.993123 0.064577
vt 0.993123 0.150640
vt 0.163660 0.035898
vt 0.158421 0.178371
vt 0.017868 0.028539
vt 0.018077 0.169216
vt 0.155005 0.042411
vt 0.149776 0.182894
vt 0.009306 0.035291
vt 0.009306 0.178984
vn -0.042182 -0.902620 0.428367
vn -0.042182 -0.902620 0.428367
vn -0.042182 -0.902620 0.428367
vn -0.042182 -0.902620 0.428367
vn 0.649533 0.758747 0.049094
vn 0.649533 0.758747 0.049094
vn 0.649533 0.758747 0.049094
vn 0.649533 0.758747 0.049094
vn 0.334973 0.080818 0.938755
vn 0.334973 0.080818 0.938755
vn 0.334973 0.080818 0.938755
vn 0.334973 0.080818 0.938755
vn -0.459762 -0.887420 -0.033248
vn -0.459762 -0.887420 -0.033248
vn -0.459762 -0.887420 -0.033248
vn -0.459762 -0.887420 -0.033248
vn 0.278783 -0.032186 -0.959815
vn 0.278783 -0.032186 -0.959815
vn 0.278783 -0.032186 -0.959815
vn 0.278783 -0.032186 -0.959815
vn 0.962065 0.268618 0.047704
vn 0.962065 0.268618 0.047704
vn 0.962065 0.268618 0.047704
vn 0.962065 0.268618 0.047704
vn 0.314058 -0.075005 0.946437
vn 0.314058 -0.075005 0.946437
vn 0.314058 -0.075005 0.946437
vn 0.314058 -0.075005 0.946437
vn -0.950294 -0.310771 -0.019050
vn -0.950294 -0.310771 -0.019050
vn -0.950294 -0.310771 -0.019050
vn -0.950294 -0.310771 -0.019050
vn 0.016891 -0.016417 -0.999723
vn 0.016891 -0.016417 -0.999723
vn 0.016891 -0.016417 -0.999723
vn 0.016891 -0.016417 -0.999723
vn 0.848554 0.505590 -0.155998
vn 0.848554 0.505590 -0.155998
vn 0.848554 0.505590 -0.155998
vn 0.848554 0.505590 -0.155998
vn -0.015139 0.758488 0.651511
vn -0.015139 0.758488 0.651511
vn -0.015139 0.758488 0.651511
vn -0.015139 0.758488 0.651511
vn -0.976272 -0.210361 -0.051383
vn -0.976272 -0.210361 -0.051383
vn -0.976272 -0.210361 -0.051383
vn -0.976272 -0.210361 -0.051383
vn 0.099956 -0.334621 -0.937037
vn 0.099956 -0.334621 -0.937037
vn 0.099956 -0.334621 -0.937037
vn 0.099956 -0.334621 -0.937037
vn 0.963208 0.267373 0.027241
vn 0.963208 0.267373 0.027241
vn 0.963208 0.267373 0.027241
vn 0.963208 0.267373 0.027241
vn 0.127146 0.479026 0.868544
vn 0.127146 0.479026 0.868544
vn 0.127146 0.479026 0.868544
vn 0.127146 0.479026 0.868544
vn -0.866063 -0.476977 0.149759
vn -0.866063 -0.476977 0.149759
vn -0.866063 -0.476977 0.149759
vn -0.866063 -0.476977 0.149759
vn 0.258200 -0.652802 -0.712167
vn 0.258200 -0.652802 -0.712167
vn 0.258200 -0.652802 -0.712167
vn 0.258200 -0.652802 -0.712167
vn 0.762485 -0.487457 0.425444
vn 0.762485 -0.487457 0.425444
vn 0.762485 -0.487457 0.425444
vn 0.762485 -0.487457 0.425444
vn 0.208217 0.500108 0.840558
vn 0.208217 0.500108 0.840558
vn 0.208217 0.500108 0.840558
vn 0.208217 0.500108 0.840558
vn 0.147863 0.943066 -0.297931
vn 0.147863 0.943066 -0.297931
vn 0.147863 0.943066 -0.297931
vn 0.147863 0.943066 -0.297931
vn 0.157050 -0.586440 0.794622
vn 0.157050 -0.586440 0.794622
vn 0.157050 -0.586440 0.794621
vn 0.157050 -0.586440 0.794622
vn 0.987402 0.151361 -0.046128
vn 0.987402 0.151361 -0.046128
vn 0.987402 0.151361 -0.046128
vn 0.987402 0.151361 -0.046128
vn 0.451374 -0.442099 0.775119
vn 0.451374 -0.442099 0.775119
vn 0.451374 -0.442099 0.775119
vn 0.451374 -0.442099 0.775119
vn -0.924296 -0.293258 0.244288
vn -0.924296 -0.293258 0.244288
vn -0.924296 -0.293258 0.244288
vn -0.924296 -0.293258 0.244288
vn -0.046403 -0.343718 -0.937926
vn -0.046403 -0.343718 -0.937926
vn -0.046403 -0.343718 -0.937926
vn -0.046403 -0.343718 -0.937926
vn 0.018665 -0.824201 -0.565990
vn 0.018665 -0.824201 -0.565990
vn 0.018665 -0.824201 -0.565990
vn 0.018665 -0.824201 -0.565990
vn 0.477570 0.359899 0.801499
vn 0.477570 0.359899 0.801499
vn 0.477570 0.359899 0.801499
vn 0.477570 0.359899 0.801499
vn 0.212897 0.139057 0.967129
vn 0.212897 0.139057 0.967129
vn 0.212897 0.139057 0.967129
vn 0.212897 0.139057 0.967129
vn 0.525021 0.479608 0.703086
vn 0.525021 0.479608 0.703086
vn 0.525021 0.479608 0.703086
vn 0.525021 0.479608 0.703086
vn -0.227404 0.972125 -0.057104
vn -0.227404 0.972125 -0.057104
vn -0.227404 0.972125 -0.057104
vn -0.227404 0.972125 -0.057104
vn -0.911503 -0.116306 0.394507
vn -0.911503 -0.116306 0.394507
vn -0.911503 -0.116306 0.394507
vn -0.911503 -0.116306 0.394507
vn 0.278227 -0.918961 0.279464
vn 0.278227 -0.918961 0.279464
vn 0.278227 -0.918961 0.279464
vn 0.278227 -0.918961 0.279464
vn 0.953577 0.235641 -0.187521
vn 0.953577 0.235641 -0.187520
vn 0.953577 0.235641 -0.187521
vn 0.953577 0.235641 -0.187521
vn -0.108867 0.943974 0.311546
vn -0.108867 0.943974 0.311546
vn -0.108867 0.943974 0.311546
vn -0.108867 0.943974 0.311546
vn -0.866311 -0.171704 0.469065
vn -0.866311 -0.171704 0.469065
vn -0.866311 -0.171704 0.469065
vn -0.866311 -0.171704 0.469065
vn 0.266347 -0.943739 0.196001
vn 0.266347 -0.943739 0.196001
vn 0.266347 -0.943739 0.196001
vn 0.266347 -0.943739 0.196001
vn 0.979414 0.171653 -0.106221
vn 0.979414 0.171653 -0.106221
vn 0.979414 0.171653 -0.106221
vn 0.979414 0.171653 -0.106221
vn 0.908339 -0.413450 0.063085
vn 0.908339 -0.413450 0.063085
vn 0.912189 -0.406436 0.052152
vn 0.911143 -0.408381 0.055173
vn 0.012005 0.644834 0.764228
vn 0.012006 0.644834 0.764228
vn 0.173574 0.524856 0.833306
vn 0.108528 0.576757 0.809675
vn 0.090627 -0.628246 -0.772718
vn 0.090627 -0.628246 -0.772718
vn 0.057965 -0.726361 -0.684865
vn 0.061189 -0.717405 -0.693964
vn 0.917074 -0.396948 0.037528
vn 0.917074 -0.396948 0.037528
vn 0.001753 -0.858813 -0.512286
vn 0.001753 -0.858813 -0.512286
vn -0.967099 0.212090 0.140489
vn -0.967099 0.212090 0.140489
vn -0.967099 0.212090 0.140489
vn -0.967099 0.212090 0.140489
vn 0.330761 0.377486 0.864928
vn 0.330761 0.377486 0.864928
vn -0.974233 0.016611 0.224930
vn -0.974233 0.016611 0.224930
vn -0.974233 0.016611 0.224930
vn -0.974234 0.016611 0.224930
vn -0.283585 0.952224 0.113353
vn -0.283585 0.952224 0.113353
vn -0.283586 0.952224 0.113353
vn -0.283585 0.952224 0.113353
vn 0.219847 -0.058916 -0.973754
vn 0.219847 -0.058916 -0.973754
vn 0.219847 -0.058916 -0.973754
vn 0.219847 -0.058916 -0.973754
vn 0.273020 -0.960862 -0.046958
vn 0.273020 -0.960862 -0.046958
vn 0.273020 -0.960862 -0.046958
vn 0.273020 -0.960862 -0.046958
vn -0.005904 -0.286504 0.958061
vn -0.005904 -0.286504 0.958061
vn -0.005904 -0.286504 0.958061
vn -0.005904 -0.286504 0.958061
vn 0.963759 0.258070 0.067587
vn 0.963759 0.258070 0.067587
vn 0.963759 0.258070 0.067587
vn 0.963759 0.258070 0.067587
vn -0.162996 0.978583 0.125729
vn -0.162996 0.978583 0.125729
vn -0.162996 0.978583 0.125729
vn -0.162996 0.978583 0.125729
vn -0.965722 -0.257558 -0.032310
vn -0.965723 -0.257558 -0.032310
vn -0.965723 -0.257558 -0.032310
vn -0.965723 -0.257558 -0.032310
vn 0.193634 -0.951079 -0.240736
vn 0.193634 -0.951079 -0.240736
vn 0.193634 -0.951079 -0.240736
vn 0.193634 -0.951079 -0.240736
vn 0.597031 0.239997 -0.765477
vn 0.597031 0.239997 -0.765477
vn 0.597031 0.239997 -0.765477
vn 0.597031 0.239997 -0.765477
vn -0.003689 0.845011 -0.534737
vn -0.003689 0.845011 -0.534737
vn -0.003689 0.845011 -0.534737
vn -0.003689 0.845011 -0.534737
vn -0.536004 0.127369 -0.834552
vn -0.536004 0.127369 -0.834552
vn -0.536004 0.127369 -0.834552
vn -0.536004 0.127369 -0.834552
vn -0.012392 -0.342786 -0.939332
vn -0.012392 -0.342786 -0.939332
vn -0.012392 -0.342786 -0.939332
vn -0.012392 -0.342786 -0.939332
vn 0.999972 0.007167 0.002090
vn 0.999972 0.007167 0.002090
vn 0.999972 0.007167 0.002090
vn 0.999972 0.007167 0.002090
vn -0.001325 0.953428 0.301617
vn -0.001325 0.953428 0.301617
vn -0.001325 0.953428 0.301617
vn -0.001325 0.953428 0.301617
vn -0.999175 -0.038325 -0.013468
vn -0.999175 -0.038325 -0.013468
vn -0.999175 -0.038325 -0.013468
vn -0.999175 -0.038325 -0.013468
vn 0.005441 -0.950778 -0.309824
vn 0.005441 -0.950778 -0.309824
vn 0.005441 -0.950778 -0.309824
vn 0.005441 -0.950778 -0.309824
vn -0.999460 0.027181 -0.018476
vn -0.999460 0.027181 -0.018476
vn -0.999460 0.027181 -0.018476
vn -0.999460 0.027181 -0.018476
s off
g ArmTorch
usemtl lambert7SG
f 41/1/1 42/2/2 43/3/3 44/4/4
f 1/5/5 2/6/6 6/7/7 5/8/8
f 2/6/9 4/9/10 7/10/11 6/7/12
f 4/9/13 3/11/14 8/12/15 7/10/16
f 3/11/17 1/13/18 5/14/19 8/12/20
f 5/8/21 6/7/22 10/15/23 9/16/24
f 6/7/25 7/10/26 11/17/27 10/15/28
f 7/10/29 8/12/30 12/18/31 11/17/32
f 8/12/33 5/14/34 9/19/35 12/18/36
f 9/16/37 10/15/38 14/20/39 13/21/40
f 10/15/41 11/17/42 15/22/43 14/20/44
f 11/17/45 12/18/46 16/23/47 15/22/48
f 12/18/49 9/19/50 13/24/51 16/23/52
f 13/21/53 14/20/54 18/25/55 17/26/56
f 14/20/57 15/22/58 19/27/59 18/25/60
f 15/22/61 16/23/62 20/28/63 19/27/64
f 16/23/65 13/24/66 17/29/67 20/28/68
f 17/26/69 18/25/70 22/30/71 21/31/72
f 18/25/73 19/27/74 23/32/75 22/30/76
f 19/27/77 20/28/78 24/33/79 23/34/80
f 20/28/81 17/29/82 21/35/83 24/33/84
f 21/36/85 22/37/86 26/38/87 25/39/88
f 37/40/89 38/41/90 39/42/91 40/43/92
f 50/60/93 49/61/94 51/62/95 52/63/96
f 24/45/97 21/36/98 25/39/99 28/46/100
f 22/37/101 23/44/102 30/48/103 29/49/104
f 23/44/105 27/47/106 31/50/107 30/48/108
f 27/47/109 26/38/110 32/51/111 31/50/112
f 26/38/113 22/37/114 29/49/115 32/51/116
f 29/49/117 30/48/118 34/52/119 33/53/120
f 30/48/121 31/50/122 35/54/123 34/52/124
f 31/50/125 32/51/126 36/55/127 35/54/128
f 32/51/129 29/49/130 33/53/131 36/55/132
f 33/53/133 34/52/134 38/41/135 37/40/136
f 34/52/137 35/54/138 39/42/139 38/41/140
f 35/54/141 36/55/142 40/43/143 39/42/144
f 36/55/145 33/53/146 37/40/147 40/43/148
s 1
f 25/39/149 26/38/150 45/56/151 46/57/152
s 2
f 26/38/153 27/47/154 48/58/155 45/56/156
s 3
f 28/46/157 25/39/158 46/57/159 47/59/160
s 1
f 46/57/152 45/56/151 42/2/161 41/1/162
s 3
f 47/59/160 46/57/159 41/1/163 44/4/164
s off
f 48/58/165 47/59/166 44/4/167 43/3/168
s 2
f 45/56/156 48/58/155 43/3/169 42/2/170
s off
f 27/47/171 28/46/172 47/59/173 48/58/174
f 23/64/175 24/65/176 49/61/177 50/60/178
f 24/65/179 28/66/180 51/62/181 49/61/182
f 28/66/183 27/67/184 52/63/185 51/62/186
f 62/72/187 61/73/188 63/74/189 64/75/190
f 27/67/191 23/64/192 53/68/193 54/69/194
f 23/64/195 50/60/196 55/70/197 53/68/198
f 50/60/199 52/63/200 56/71/201 55/70/202
f 52/63/203 27/67/204 54/69/205 56/71/206
f 54/69/207 53/68/208 57/76/209 58/77/210
f 53/68/211 55/70/212 59/78/213 57/76/214
f 55/70/215 56/71/216 60/79/217 59/78/218
f 56/71/219 54/69/220 58/77/221 60/79/222
f 58/77/223 57/76/224 61/80/225 62/81/226
f 57/76/227 59/78/228 63/82/229 61/80/230
f 59/78/231 60/79/232 64/83/233 63/82/234
f 60/79/235 58/77/236 62/81/237 64/83/238
f 2/6/239 1/13/240 3/11/241 4/9/242
