# This file uses centimeters as units for non-parametric coordinates.

mtllib Crate.mtl
g default
v -13.328613 12.608940 2.348951
v -9.517745 12.608940 2.348951
v -13.328613 16.419800 2.348951
v -9.517745 16.419800 2.348951
v -13.328613 16.419800 -1.461925
v -9.517745 16.419800 -1.461925
v -13.328613 12.608940 -1.461925
v -9.517745 12.608940 -1.461925
v -12.927354 13.061954 2.348951
v -9.919006 13.061954 2.348951
v -9.919006 15.966776 2.348951
v -12.927354 15.966776 2.348951
v -12.927354 15.966776 -1.461925
v -9.919006 15.966776 -1.461925
v -9.919006 13.061954 -1.461925
v -12.927354 13.061954 -1.461925
v -12.905639 12.608940 -1.000553
v -9.940712 12.608940 -1.000553
v -9.940712 12.608940 1.887579
v -12.905639 12.608940 1.887579
v -9.517745 13.040161 -0.934270
v -9.517745 13.040161 1.821296
v -9.517745 15.988567 -0.934270
v -9.517745 15.988567 1.821296
v -13.328613 13.040161 -0.934270
v -13.328613 13.040161 1.821296
v -13.328613 15.988567 1.821296
v -13.328613 15.988567 -0.934270
v -12.855100 16.419800 1.784033
v -9.991261 16.419800 1.784033
v -9.991261 16.419800 -0.897007
v -12.855100 16.419800 -0.897007
v -12.927354 13.061954 2.097003
v -9.919006 13.061954 2.097003
v -9.919006 15.966776 2.097003
v -12.927354 15.966776 2.097003
v -12.927354 15.966776 -1.209976
v -9.919006 15.966776 -1.209976
v -9.919006 13.061954 -1.209976
v -12.927354 13.061954 -1.209976
v -12.855100 16.179705 1.784033
v -9.991261 16.179705 1.784033
v -9.991261 16.179705 -0.897007
v -12.855100 16.179705 -0.897007
v -12.905639 12.849034 -1.000553
v -9.940712 12.849034 -1.000553
v -9.940712 12.849034 1.887579
v -12.905639 12.849034 1.887579
v -9.784971 13.040161 -0.934270
v -9.784971 13.040161 1.821296
v -9.784971 15.988567 -0.934270
v -9.784971 15.988567 1.821296
v -13.061381 13.040161 -0.934270
v -13.061381 13.040161 1.821296
v -13.061381 15.988567 1.821296
v -13.061381 15.988567 -0.934270
vt 0.821183 0.230345
vt 0.821183 0.759568
vt 0.280950 0.759568
vt 0.280950 0.230345
vt 0.277603 0.228525
vt 0.810214 0.228525
vt 0.810214 0.754108
vt 0.821182 0.231919
vt 0.821182 0.755090
vt 0.286122 0.217146
vt 0.798596 0.217146
vt 0.798596 0.765485
vt 0.286122 0.765485
vt 0.802632 0.214344
vt 0.290159 0.214344
vt 0.290159 0.768616
vt 0.802632 0.768616
vt 0.965026 0.068086
vt 0.970547 0.099381
vt 0.970547 0.891796
vt 0.870962 0.808360
vt 0.870962 0.182818
vt 0.132818 0.891796
vt 0.127298 0.068086
vt 0.232405 0.808360
vt 0.280948 0.755090
vt 0.280948 0.231919
vt 0.970546 0.102197
vt 0.970546 0.885549
vt 0.870960 0.803067
vt 0.870960 0.184679
vt 0.132818 0.885549
vt 0.122527 0.072423
vt 0.960255 0.072423
vt 0.844264 0.167217
vt 0.238519 0.167217
vt 0.243290 0.163905
vt 0.849034 0.163905
vt 0.127298 0.914876
vt 0.243290 0.819055
vt 0.277603 0.754108
vt 0.124359 0.049766
vt 0.962087 0.049766
vt 0.857996 0.180667
vt 0.228450 0.180667
vt 0.962087 0.932808
vt 0.857996 0.801907
vt 0.124359 0.932808
vt 0.232403 0.803067
vt 0.132818 0.102197
vt 0.232403 0.184679
vt 0.849034 0.819055
vt 0.965026 0.914876
vt 0.132818 0.099381
vt 0.232405 0.182818
vt 0.274169 0.239857
vt 0.813650 0.239857
vt 0.228450 0.801907
vt 0.960255 0.910151
vt 0.844264 0.815354
vt 0.122527 0.910151
vt 0.238519 0.815354
vt 0.813650 0.759552
vt 0.274169 0.759552
vt 0.133422 0.095931
vt 0.953024 0.095931
vt 0.862058 0.194061
vt 0.224391 0.194061
vt 0.953024 0.906472
vt 0.862058 0.808342
vt 0.133422 0.906472
vt 0.224391 0.808342
vn 0.000000 0.000000 1.000000
vn 0.000000 0.000000 1.000000
vn 0.000000 0.000000 1.000000
vn 0.000000 0.000000 1.000000
vn 0.000000 1.000000 0.000000
vn 0.000000 1.000000 0.000000
vn 0.000000 1.000000 0.000000
vn 0.000000 1.000000 0.000000
vn 0.000000 0.000000 -1.000000
vn 0.000000 0.000000 -1.000000
vn 0.000000 0.000000 -1.000000
vn 0.000000 0.000000 -1.000000
vn 0.000000 -1.000000 0.000000
vn 0.000000 -1.000000 0.000000
vn 0.000000 -1.000000 0.000000
vn 0.000000 -1.000000 0.000000
vn 1.000000 0.000000 0.000000
vn 1.000000 0.000000 0.000000
vn 1.000000 0.000000 0.000000
vn 1.000000 0.000000 0.000000
vn -1.000000 0.000000 0.000000
vn -1.000000 0.000000 0.000000
vn -1.000000 0.000000 0.000000
vn -1.000000 0.000000 0.000000
vn 0.000000 0.000000 1.000000
vn 0.000000 0.000000 1.000000
vn 0.000000 0.000000 1.000000
vn 0.000000 0.000000 1.000000
vn 0.000000 0.000000 1.000000
vn 0.000000 0.000000 1.000000
vn 0.000000 0.000000 1.000000
vn 0.000000 0.000000 1.000000
vn 0.000000 0.000000 1.000000
vn 0.000000 0.000000 1.000000
vn 0.000000 0.000000 1.000000
vn 0.000000 0.000000 1.000000
vn -0.000000 0.000000 1.000000
vn -0.000000 0.000000 1.000000
vn -0.000000 0.000000 1.000000
vn -0.000000 0.000000 1.000000
vn 0.000000 0.000000 -1.000000
vn 0.000000 0.000000 -1.000000
vn 0.000000 0.000000 -1.000000
vn 0.000000 0.000000 -1.000000
vn 0.000000 0.000000 -1.000000
vn 0.000000 0.000000 -1.000000
vn 0.000000 0.000000 -1.000000
vn 0.000000 0.000000 -1.000000
vn 0.000000 0.000000 -1.000000
vn 0.000000 0.000000 -1.000000
vn 0.000000 0.000000 -1.000000
vn 0.000000 0.000000 -1.000000
vn 0.000000 0.000000 -1.000000
vn 0.000000 0.000000 -1.000000
vn 0.000000 0.000000 -1.000000
vn 0.000000 0.000000 -1.000000
vn 0.000000 -1.000000 -0.000001
vn 0.000000 -1.000000 -0.000001
vn 0.000000 -1.000000 -0.000001
vn 0.000000 -1.000000 -0.000001
vn 0.000000 -1.000000 0.000001
vn 0.000000 -1.000000 0.000001
vn 0.000000 -1.000000 0.000001
vn 0.000000 -1.000000 0.000001
vn 1.000000 0.000001 0.000000
vn 1.000000 0.000001 0.000000
vn 1.000000 0.000001 0.000000
vn 1.000000 0.000001 0.000000
vn 1.000000 -0.000001 0.000000
vn 1.000000 -0.000001 0.000000
vn 1.000000 -0.000001 0.000000
vn 1.000000 -0.000001 0.000000
vn -1.000000 0.000000 0.000000
vn -1.000000 0.000000 0.000000
vn -1.000000 0.000000 0.000000
vn -1.000000 0.000000 0.000000
vn -1.000000 -0.000000 0.000000
vn -1.000000 -0.000000 0.000000
vn -1.000000 -0.000000 0.000000
vn -1.000000 -0.000000 0.000000
vn 0.000000 1.000000 0.000001
vn 0.000000 1.000000 0.000001
vn 0.000000 1.000000 0.000001
vn 0.000000 1.000000 0.000001
vn 0.000000 1.000000 0.000000
vn 0.000000 1.000000 0.000000
vn 0.000000 1.000000 0.000000
vn 0.000000 1.000000 0.000000
vn 0.000000 1.000000 -0.000001
vn 0.000000 1.000000 -0.000001
vn 0.000000 1.000000 -0.000001
vn 0.000000 1.000000 -0.000001
vn 0.000000 1.000000 0.000000
vn 0.000000 1.000000 0.000000
vn 0.000000 1.000000 0.000000
vn 0.000000 1.000000 0.000000
vn 0.000000 1.000000 0.000000
vn 0.000000 1.000000 0.000000
vn 0.000000 1.000000 0.000000
vn 0.000000 1.000000 0.000000
vn -1.000000 0.000000 0.000000
vn -1.000000 0.000000 0.000000
vn -1.000000 0.000000 0.000000
vn -1.000000 0.000000 0.000000
vn 0.000000 -1.000000 0.000000
vn 0.000000 -1.000000 0.000000
vn 0.000000 -1.000000 0.000000
vn 0.000000 -1.000000 0.000000
vn 1.000000 0.000000 0.000000
vn 1.000000 0.000000 0.000000
vn 1.000000 0.000000 0.000000
vn 1.000000 0.000000 0.000000
vn 0.000000 -1.000000 0.000000
vn 0.000000 -1.000000 0.000000
vn 0.000000 -1.000000 0.000000
vn 0.000000 -1.000000 0.000000
vn -1.000000 0.000000 0.000000
vn -1.000000 0.000000 0.000000
vn -1.000000 0.000000 0.000000
vn -1.000000 0.000000 0.000000
vn 0.000000 1.000000 0.000000
vn 0.000000 1.000000 0.000000
vn 0.000000 1.000000 0.000000
vn 0.000000 1.000000 0.000000
vn 1.000000 0.000000 0.000000
vn 1.000000 0.000000 0.000000
vn 1.000000 0.000000 0.000000
vn 1.000000 0.000000 0.000000
vn 0.000000 0.000000 -1.000000
vn 0.000000 0.000000 -1.000000
vn 0.000000 0.000000 -1.000000
vn 0.000000 0.000000 -1.000000
vn -1.000000 0.000000 0.000000
vn -1.000000 0.000000 0.000000
vn -1.000000 0.000000 0.000000
vn -1.000000 0.000000 0.000000
vn 0.000000 0.000000 1.000000
vn 0.000000 0.000000 1.000000
vn 0.000000 0.000000 1.000000
vn 0.000000 0.000000 1.000000
vn 1.000000 0.000000 0.000000
vn 1.000000 0.000000 0.000000
vn 1.000000 0.000000 0.000000
vn 1.000000 0.000000 0.000000
vn 0.000000 0.000000 1.000000
vn 0.000000 0.000000 1.000000
vn 0.000000 0.000000 1.000000
vn 0.000000 0.000000 1.000000
vn -1.000000 0.000000 0.000000
vn -1.000000 0.000000 0.000000
vn -1.000000 0.000000 0.000000
vn -1.000000 0.000000 0.000000
vn 0.000000 0.000000 -1.000000
vn 0.000000 0.000000 -1.000000
vn 0.000000 0.000000 -1.000000
vn 0.000000 0.000000 -1.000000
vn 1.000000 0.000000 0.000000
vn 1.000000 0.000000 0.000000
vn 1.000000 0.000000 0.000000
vn 1.000000 0.000000 0.000000
vn 0.000000 1.000000 0.000000
vn 0.000000 1.000000 0.000000
vn 0.000000 1.000000 0.000000
vn 0.000000 1.000000 0.000000
vn 0.000000 0.000000 1.000000
vn 0.000000 0.000000 1.000000
vn 0.000000 0.000000 1.000000
vn 0.000000 0.000000 1.000000
vn 0.000000 -1.000000 0.000000
vn 0.000000 -1.000000 0.000000
vn 0.000000 -1.000000 0.000000
vn 0.000000 -1.000000 0.000000
vn 0.000000 0.000000 -1.000000
vn 0.000000 0.000000 -1.000000
vn 0.000000 0.000000 -1.000000
vn 0.000000 0.000000 -1.000000
vn 0.000000 1.000000 0.000000
vn 0.000000 1.000000 0.000000
vn 0.000000 1.000000 0.000000
vn 0.000000 1.000000 0.000000
vn 0.000000 0.000000 -1.000000
vn 0.000000 0.000000 -1.000000
vn 0.000000 0.000000 -1.000000
vn 0.000000 0.000000 -1.000000
vn 0.000000 -1.000000 0.000000
vn 0.000000 -1.000000 0.000000
vn 0.000000 -1.000000 0.000000
vn 0.000000 -1.000000 0.000000
vn 0.000000 0.000000 1.000000
vn 0.000000 0.000000 1.000000
vn 0.000000 0.000000 1.000000
vn 0.000000 0.000000 1.000000
s off
g Crate1
usemtl lambert3SG
f 33/1/1 34/2/2 35/3/3 36/4/4
f 41/5/5 42/6/6 43/7/7 44/41/8
f 37/8/9 38/9/10 39/26/11 40/27/12
f 45/56/13 46/57/14 47/63/15 48/64/16
f 50/10/17 49/11/18 51/12/19 52/13/20
f 53/14/21 54/15/22 55/16/23 56/17/24
f 1/19/25 2/20/26 10/21/27 9/22/28
f 2/20/29 4/23/30 11/25/31 10/21/32
f 4/23/33 3/54/34 12/55/35 11/25/36
f 3/54/37 1/19/38 9/22/39 12/55/40
f 5/28/41 6/29/42 14/30/43 13/31/44
f 6/29/45 8/32/46 15/49/47 14/30/48
f 8/32/49 7/50/50 16/51/51 15/49/52
f 7/50/53 5/28/54 13/31/55 16/51/56
s 1
f 7/65/57 8/66/58 18/67/59 17/68/60
f 8/66/58 2/69/61 19/70/62 18/67/59
f 2/69/61 1/71/63 20/72/64 19/70/62
f 1/71/63 7/65/57 17/68/60 20/72/64
s 2
f 2/33/65 8/34/66 21/35/67 22/36/68
f 8/34/66 6/59/69 23/60/70 21/35/67
f 6/59/69 4/61/71 24/62/72 23/60/70
f 4/61/71 2/33/65 22/36/68 24/62/72
s 3
f 7/18/73 1/24/74 26/37/75 25/38/76
f 1/24/74 3/39/77 27/40/78 26/37/75
f 3/39/77 5/53/79 28/52/80 27/40/78
f 5/53/79 7/18/73 25/38/76 28/52/80
s off
f 3/42/81 4/43/82 30/44/83 29/45/84
f 4/43/85 6/46/86 31/47/87 30/44/88
f 6/46/89 5/48/90 32/58/91 31/47/92
f 5/48/93 3/42/94 29/45/95 32/58/96
f 9/22/97 10/21/98 34/2/99 33/1/100
f 10/21/101 11/25/102 35/3/103 34/2/104
f 11/25/105 12/55/106 36/4/107 35/3/108
f 12/55/109 9/22/110 33/1/111 36/4/112
f 13/31/113 14/30/114 38/9/115 37/8/116
f 14/30/117 15/49/118 39/26/119 38/9/120
f 15/49/121 16/51/122 40/27/123 39/26/124
f 16/51/125 13/31/126 37/8/127 40/27/128
f 29/45/129 30/44/130 42/6/131 41/5/132
f 30/44/133 31/47/134 43/7/135 42/6/136
f 31/47/137 32/58/138 44/41/139 43/7/140
f 32/58/141 29/45/142 41/5/143 44/41/144
f 17/68/145 18/67/146 46/57/147 45/56/148
f 18/67/149 19/70/150 47/63/151 46/57/152
f 19/70/153 20/72/154 48/64/155 47/63/156
f 20/72/157 17/68/158 45/56/159 48/64/160
f 22/36/161 21/35/162 49/11/163 50/10/164
f 21/35/165 23/60/166 51/12/167 49/11/168
f 23/60/169 24/62/170 52/13/171 51/12/172
f 24/62/173 22/36/174 50/10/175 52/13/176
f 25/38/177 26/37/178 54/15/179 53/14/180
f 26/37/181 27/40/182 55/16/183 54/15/184
f 27/40/185 28/52/186 56/17/187 55/16/188
f 28/52/189 25/38/190 53/14/191 56/17/192
