# This file uses centimeters as units for non-parametric coordinates.

mtllib WallDoor.mtl
g default
v -11.575220 -0.168982 0.187431
v -3.858406 -0.168982 0.187431
v 3.858408 -0.168982 0.187431
v 11.575221 -0.168982 0.187431
v -11.575220 12.332078 0.187431
v -3.858406 12.332078 0.187431
v -1.929202 13.358936 0.187431
v 0.000001 13.748428 0.187431
v 1.929205 13.358936 0.187431
v 3.858408 12.332078 0.187431
v 11.575221 12.332078 0.187431
v -11.575220 18.237152 0.187431
v -3.858406 18.237152 0.187431
v -1.929202 18.237152 0.187431
v 0.000001 18.237152 0.187431
v 1.929205 18.237152 0.187431
v 3.858408 18.237152 0.187431
v 11.575221 18.237152 0.187431
v -11.575220 18.237152 -0.187431
v -3.858406 18.237152 -0.187431
v -1.929202 18.237152 -0.187431
v 0.000001 18.237152 -0.187431
v 1.929205 18.237152 -0.187431
v 3.858408 18.237152 -0.187431
v 11.575221 18.237152 -0.187431
v -11.575220 12.332078 -0.187431
v -3.858406 12.332073 -0.187431
v -1.929202 13.358932 -0.187431
v 0.000001 13.748428 -0.187431
v 1.929205 13.358932 -0.187431
v 3.858408 12.332073 -0.187431
v 11.575221 12.332078 -0.187431
v -11.575220 -0.168982 -0.187431
v -3.858406 -0.168982 -0.187431
v 3.858408 -0.168982 -0.187431
v 11.575221 -0.168982 -0.187431
v 3.412652 10.610973 -0.483285
v 2.955443 11.710896 -0.483284
v 1.706326 12.516096 -0.483285
v -0.000000 12.810819 -0.483284
v -1.706326 12.516096 -0.483285
v -2.955443 11.710896 -0.483284
v -3.412652 10.610973 -0.483285
v 3.412652 10.610973 0.485196
v 2.955443 11.710896 0.485197
v 1.706326 12.516096 0.485197
v -0.000000 12.810819 0.485198
v -1.706326 12.516096 0.485197
v -2.955443 11.710896 0.485197
v -3.412652 10.610973 0.485196
v 4.875217 10.610973 0.485196
v 4.222062 12.182293 0.485196
v 2.437608 13.332577 0.485197
v 0.000000 13.753611 0.485196
v -2.437608 13.332577 0.485197
v -4.222062 12.182293 0.485196
v -4.875217 10.610973 0.485196
v 4.875217 10.610973 -0.483285
v 4.222062 12.182293 -0.483284
v 2.437608 13.332577 -0.483285
v 0.000000 13.753611 -0.483285
v -2.437608 13.332577 -0.483285
v -4.222062 12.182293 -0.483284
v -4.875217 10.610973 -0.483285
v 3.412652 -0.198243 -0.483284
v 3.412652 -0.198243 0.485197
v -3.412652 -0.198243 -0.483284
v -3.412652 -0.198243 0.485197
v 4.875217 -0.198243 0.485197
v -4.875217 -0.198243 0.485197
v 4.875217 -0.198243 -0.483284
v -4.875217 -0.198243 -0.483284
v 3.412652 -0.198243 -0.483285
v 3.412652 -0.198244 0.485197
v -3.412652 -0.198244 0.485196
v -3.412652 -0.198244 -0.483285
v 4.875217 -0.198244 0.485197
v -4.875217 -0.198244 0.485197
v 4.875217 -0.198244 -0.483284
v -4.875217 -0.198244 -0.483284
vt 0.705392 0.247300
vt 0.076462 0.347059
vt 0.076462 0.024288
vt 0.709109 0.142852
vt 0.738863 0.142852
vt 0.234874 0.024288
vt 0.234874 0.347059
vt 0.393287 0.347059
vt 0.393287 0.024288
vt 0.551699 0.024288
vt 0.737624 0.247300
vt 0.746302 0.142852
vt 0.745682 0.247300
vt 0.753740 0.142852
vt 0.753740 0.247300
vt 0.708380 0.148581
vt 0.727611 0.148581
vt 0.761179 0.142852
vt 0.761799 0.247300
vt 0.769857 0.247300
vt 0.768618 0.142852
vt 0.798372 0.142852
vt 0.774574 0.198952
vt 0.795407 0.198952
vt 0.802089 0.247300
vt 0.550104 0.347059
vt 0.550104 0.499525
vt 0.391692 0.499525
vt 0.391692 0.347059
vt 0.352089 0.499525
vt 0.352089 0.373572
vt 0.312486 0.499525
vt 0.312486 0.383628
vt 0.272883 0.499525
vt 0.272883 0.373572
vt 0.233280 0.499525
vt 0.798372 0.142853
vt 0.802089 0.247300
vt 0.802089 0.247300
vt 0.798372 0.142852
vt 0.709109 0.142853
vt 0.709109 0.142852
vt 0.551699 0.347059
vt 0.076462 0.499525
vt 0.234874 0.499525
vt 0.274477 0.373572
vt 0.274477 0.499525
vt 0.314081 0.383628
vt 0.314081 0.499525
vt 0.353684 0.373572
vt 0.353684 0.499525
vt 0.393287 0.499525
vt 0.551699 0.499525
vt 0.233280 0.347059
vt 0.074867 0.499525
vt 0.074867 0.347059
vt 0.550104 0.024288
vt 0.391692 0.024288
vt 0.233280 0.024288
vt 0.074867 0.024288
vt 0.705392 0.247300
vt 0.705392 0.247300
vt 0.359420 0.641872
vt 0.372978 0.641872
vt 0.372978 0.844274
vt 0.359420 0.844274
vt 0.322378 0.641872
vt 0.322378 0.844274
vt 0.271777 0.641872
vt 0.271777 0.844274
vt 0.221177 0.641872
vt 0.221177 0.844274
vt 0.184134 0.641872
vt 0.184134 0.844274
vt 0.170576 0.641872
vt 0.170576 0.844274
vt 0.420935 0.907984
vt 0.442461 0.871792
vt 0.511323 0.871792
vt 0.480571 0.923496
vt 0.362123 0.934479
vt 0.396553 0.961345
vt 0.281784 0.944176
vt 0.281784 0.975199
vt 0.201446 0.934479
vt 0.167015 0.961345
vt 0.142633 0.907984
vt 0.082997 0.923495
vt 0.121106 0.871792
vt 0.052245 0.871792
vt 0.348341 0.655938
vt 0.358775 0.655122
vt 0.337979 0.829133
vt 0.327545 0.829949
vt 0.319832 0.658167
vt 0.299036 0.832178
vt 0.280889 0.661212
vt 0.260093 0.835223
vt 0.241946 0.664257
vt 0.221150 0.838268
vt 0.213437 0.666486
vt 0.192641 0.840497
vt 0.203003 0.667302
vt 0.182207 0.841313
vt 0.082997 0.923495
vt 0.052245 0.871792
vt 0.121106 0.871792
vt 0.142633 0.907984
vt 0.167015 0.961345
vt 0.201445 0.934479
vt 0.281784 0.975199
vt 0.281784 0.944177
vt 0.396554 0.961345
vt 0.362122 0.934479
vt 0.480571 0.923495
vt 0.420935 0.907984
vt 0.511323 0.871792
vt 0.442461 0.871792
vt 0.372978 0.641872
vt 0.372978 0.844274
vt 0.170576 0.844274
vt 0.170576 0.641872
vt 0.442461 0.516120
vt 0.511323 0.516120
vt 0.052245 0.516120
vt 0.121107 0.516120
vt 0.358775 0.655122
vt 0.337979 0.829133
vt 0.182207 0.841313
vt 0.203003 0.667302
vt 0.052245 0.516120
vt 0.121106 0.516120
vt 0.442461 0.516120
vt 0.511323 0.516120
vt 1.281015 1.186512
vt 1.281015 1.186512
vt 1.632120 0.733164
vt 1.632120 0.733164
vt 2.026472 0.920713
vt 2.026472 0.920713
vt 1.675367 1.374061
vt 1.675367 1.374061
vt 1.547615 0.692975
vt 1.547615 0.692975
vt 2.110976 0.960902
vt 2.110976 0.960902
vt 1.196511 1.146322
vt 1.196511 1.146322
vt 1.759871 1.414250
vt 1.759871 1.414250
vn 0.000000 0.000000 1.000000
vn 0.000000 0.000000 1.000000
vn 0.000000 0.000000 1.000000
vn -0.000000 0.000000 1.000000
vn 0.000000 0.000000 1.000000
vn 0.000000 0.000000 1.000000
vn 0.000000 0.000000 1.000000
vn 0.000000 0.000000 1.000000
vn 0.000000 0.000000 1.000000
vn -0.000000 0.000000 1.000000
vn 0.000000 0.000000 1.000000
vn 0.000000 0.000000 1.000000
vn 0.000000 0.000000 1.000000
vn 0.000000 0.000000 1.000000
vn -0.000000 0.000000 1.000000
vn -0.000000 0.000000 1.000000
vn 0.000000 0.000000 1.000000
vn 0.000000 0.000000 1.000000
vn 0.000000 1.000000 0.000000
vn 0.000000 1.000000 0.000000
vn 0.000000 1.000000 0.000000
vn 0.000000 1.000000 0.000000
vn 0.000000 1.000000 0.000000
vn 0.000000 1.000000 0.000000
vn 0.000000 1.000000 0.000000
vn 0.000000 1.000000 0.000000
vn 0.000000 1.000000 0.000000
vn 0.000000 1.000000 0.000000
vn 0.000000 1.000000 0.000000
vn 0.000000 1.000000 0.000000
vn 0.000000 1.000000 0.000000
vn 0.000000 1.000000 0.000000
vn 0.000000 0.000000 -1.000000
vn 0.000000 0.000000 -1.000000
vn -0.000000 0.000000 -1.000000
vn -0.000000 0.000000 -1.000000
vn -0.000000 0.000000 -1.000000
vn -0.000000 0.000000 -1.000000
vn -0.000000 0.000000 -1.000000
vn -0.000000 0.000000 -1.000000
vn 0.000000 0.000000 -1.000000
vn 0.000000 0.000000 -1.000000
vn 0.000000 0.000000 -1.000000
vn -0.000000 0.000000 -1.000000
vn -0.000000 0.000000 -1.000000
vn -0.000000 0.000000 -1.000000
vn 0.000000 0.000000 -1.000000
vn 0.000000 0.000000 -1.000000
vn 0.000000 0.000000 -1.000000
vn 0.000000 0.000000 -1.000000
vn 1.000000 0.000000 0.000000
vn 1.000000 0.000000 0.000000
vn 1.000000 0.000000 0.000000
vn 1.000000 0.000000 0.000000
vn 1.000000 0.000000 0.000000
vn 1.000000 0.000000 0.000000
vn -1.000000 0.000000 0.000000
vn -1.000000 0.000000 0.000000
vn -1.000000 0.000000 0.000000
vn -1.000000 0.000000 0.000000
vn -1.000000 0.000000 0.000000
vn -1.000000 0.000000 0.000000
vn -0.923402 -0.383834 0.000000
vn -0.923402 -0.383834 0.000000
vn -0.923402 -0.383834 0.000000
vn -0.923402 -0.383834 0.000000
vn -0.541803 -0.840506 0.000000
vn -0.541803 -0.840506 0.000000
vn -0.541803 -0.840506 0.000000
vn -0.541803 -0.840506 0.000000
vn -0.170203 -0.985409 0.000000
vn -0.170203 -0.985409 0.000000
vn -0.170203 -0.985409 0.000000
vn -0.170203 -0.985409 0.000000
vn 0.170203 -0.985409 0.000000
vn 0.170203 -0.985409 0.000000
vn 0.170203 -0.985409 0.000000
vn 0.170203 -0.985409 0.000000
vn 0.541803 -0.840506 0.000000
vn 0.541803 -0.840506 0.000000
vn 0.541803 -0.840506 0.000000
vn 0.541803 -0.840506 0.000000
vn 0.923402 -0.383834 0.000000
vn 0.923402 -0.383834 0.000000
vn 0.923402 -0.383834 0.000000
vn 0.923402 -0.383834 0.000000
vn 0.000000 0.000000 1.000000
vn 0.000000 0.000000 1.000000
vn 0.000000 0.000000 1.000000
vn 0.000000 0.000000 1.000000
vn 0.000000 0.000001 1.000000
vn 0.000000 0.000000 1.000000
vn 0.000000 0.000001 1.000000
vn 0.000000 0.000001 1.000000
vn -0.000000 0.000001 1.000000
vn -0.000000 0.000000 1.000000
vn -0.000000 0.000000 1.000000
vn -0.000000 0.000000 1.000000
vn -0.000000 0.000000 1.000000
vn -0.000000 0.000000 1.000000
vn 0.923403 0.383833 0.000000
vn 0.923402 0.383833 0.000000
vn 0.923403 0.383833 0.000000
vn 0.923402 0.383833 0.000000
vn 0.541802 0.840506 0.000000
vn 0.541802 0.840506 0.000000
vn 0.541802 0.840506 0.000000
vn 0.541802 0.840506 0.000000
vn 0.170204 0.985409 0.000000
vn 0.170204 0.985409 0.000000
vn 0.170204 0.985409 0.000000
vn 0.170204 0.985409 0.000000
vn -0.170204 0.985409 0.000000
vn -0.170204 0.985409 0.000000
vn -0.170204 0.985409 0.000000
vn -0.170204 0.985409 0.000000
vn -0.541802 0.840506 0.000000
vn -0.541802 0.840506 0.000000
vn -0.541802 0.840506 0.000000
vn -0.541802 0.840506 0.000000
vn -0.923402 0.383833 0.000000
vn -0.923402 0.383833 0.000000
vn -0.923402 0.383833 0.000000
vn -0.923402 0.383833 0.000000
vn 0.000000 0.000000 -1.000000
vn -0.000000 0.000001 -1.000000
vn -0.000000 0.000001 -1.000000
vn 0.000000 0.000000 -1.000000
vn 0.000000 -0.000000 -1.000000
vn -0.000000 -0.000000 -1.000000
vn 0.000000 -0.000000 -1.000000
vn 0.000000 -0.000000 -1.000000
vn -0.000000 -0.000000 -1.000000
vn 0.000000 -0.000000 -1.000000
vn -0.000000 0.000000 -1.000000
vn -0.000000 0.000000 -1.000000
vn 0.000000 0.000000 -1.000000
vn 0.000000 0.000000 -1.000000
vn -1.000000 0.000000 0.000000
vn -1.000000 0.000000 0.000000
vn -1.000000 0.000000 0.000000
vn -1.000000 0.000000 0.000000
vn 1.000000 0.000000 0.000000
vn 1.000000 0.000000 0.000000
vn 1.000000 0.000000 0.000000
vn 1.000000 0.000000 0.000000
vn 0.000000 0.000000 1.000000
vn 0.000000 0.000000 1.000000
vn 0.000000 0.000000 1.000000
vn 0.000000 0.000000 1.000000
vn 0.000000 0.000000 1.000000
vn 0.000000 0.000000 1.000000
vn 0.000000 0.000000 1.000000
vn 0.000000 0.000000 1.000000
vn 1.000000 -0.000000 0.000000
vn 1.000000 -0.000000 0.000000
vn 1.000000 -0.000000 0.000000
vn 1.000000 -0.000000 0.000000
vn -1.000000 0.000000 0.000000
vn -1.000000 0.000000 0.000000
vn -1.000000 0.000000 0.000000
vn -1.000000 0.000000 0.000000
vn 0.000000 -0.000000 -1.000000
vn 0.000000 -0.000000 -1.000000
vn 0.000000 -0.000000 -1.000000
vn 0.000000 -0.000000 -1.000000
vn 0.000000 -0.000000 -1.000000
vn 0.000000 -0.000000 -1.000000
vn 0.000000 -0.000000 -1.000000
vn 0.000000 -0.000000 -1.000000
vn -0.888569 -0.458743 0.000000
vn -0.000000 -0.000000 0.000000
vn -0.888569 -0.458743 0.000000
vn -0.888569 -0.458743 0.000000
vn 0.968261 -0.249943 0.000000
vn 0.968261 -0.249943 0.000000
vn 0.968261 -0.249943 0.000000
vn 0.968261 -0.249943 0.000000
vn 0.000000 0.227280 0.973830
vn 0.000000 0.227280 0.973830
vn 0.000000 0.227280 0.973830
vn 0.000000 0.227280 0.973830
vn 0.000000 -0.241574 0.970382
vn 0.000000 -0.241574 0.970382
vn 0.000000 -0.241574 0.970382
vn 0.000000 -0.241574 0.970382
vn 1.000000 0.000000 0.000000
vn 1.000000 0.000000 0.000000
vn 1.000000 0.000000 0.000000
vn 1.000000 0.000000 0.000000
vn -1.000000 0.000000 0.000000
vn -1.000000 0.000000 0.000000
vn -1.000000 0.000000 0.000000
vn -1.000000 0.000000 0.000000
vn 0.000000 0.573909 -0.818919
vn 0.000000 0.573909 -0.818919
vn 0.000000 0.573909 -0.818919
vn 0.000000 0.573909 -0.818919
vn -0.000000 0.434440 -0.900701
vn -0.000000 0.434440 -0.900701
vn -0.000000 0.434440 -0.900701
vn -0.000000 0.434440 -0.900701
s 1
g WallDoor
usemtl lambert2SG
f 5/2/1 1/3/2 2/6/3 6/7/4
f 10/8/5 3/9/6 4/10/7 11/43/8
f 12/44/9 5/2/1 6/7/4 13/45/10
f 7/46/11 14/47/12 13/45/10 6/7/4
f 8/48/13 15/49/14 14/47/12 7/46/11
f 9/50/15 16/51/16 15/49/14 8/48/13
f 10/8/5 17/52/17 16/51/16 9/50/15
f 17/52/17 10/8/5 11/43/8 18/53/18
s 3
f 19/1/19 12/4/20 13/5/21 20/11/22
f 13/5/21 14/12/23 21/13/24 20/11/22
f 14/12/23 15/14/25 22/15/26 21/13/24
f 15/14/25 16/18/27 23/19/28 22/15/26
f 16/16/27 17/17/29 24/24/30 23/23/28
f 24/20/30 17/21/29 18/22/31 25/25/32
s 4
f 26/26/33 19/27/34 20/28/35 27/29/36
f 21/30/37 28/31/38 27/29/36 20/28/35
f 22/32/39 29/33/40 28/31/38 21/30/37
f 23/34/41 30/35/42 29/33/40 22/32/39
f 24/36/43 31/54/44 30/35/42 23/34/41
f 31/54/44 24/36/43 25/55/45 32/56/46
f 33/57/47 26/26/33 27/29/36 34/58/48
f 35/59/49 31/54/44 32/56/46 36/60/50
s 5
f 4/37/51 36/38/52 32/39/53 11/40/54
f 11/40/54 32/39/53 25/25/55 18/22/56
s 6
f 1/41/57 5/42/58 26/61/59 33/62/60
f 5/42/58 12/4/61 19/1/62 26/61/59
s off
f 38/63/63 37/64/64 44/65/65 45/66/66
f 39/67/67 38/63/68 45/66/69 46/68/70
f 40/69/71 39/67/72 46/68/73 47/70/74
f 41/71/75 40/69/76 47/70/77 48/72/78
f 42/73/79 41/71/80 48/72/81 49/74/82
f 43/75/83 42/73/84 49/74/85 50/76/86
s 7
f 45/77/87 44/78/88 51/79/89 52/80/90
f 46/81/91 45/77/87 52/80/90 53/82/92
f 47/83/93 46/81/91 53/82/92 54/84/94
f 48/85/95 47/83/93 54/84/94 55/86/96
f 49/87/97 48/85/95 55/86/96 56/88/98
f 50/89/99 49/87/97 56/88/98 57/90/100
s off
f 52/91/101 51/92/102 58/93/103 59/94/104
f 53/95/105 52/91/106 59/94/107 60/96/108
f 54/97/109 53/95/110 60/96/111 61/98/112
f 55/99/113 54/97/114 61/98/115 62/100/116
f 56/101/117 55/99/118 62/100/119 63/102/120
f 57/103/121 56/101/122 63/102/123 64/104/124
s 8
f 59/105/125 58/106/126 37/107/127 38/108/128
f 60/109/129 59/105/125 38/108/128 39/110/130
f 61/111/131 60/109/129 39/110/130 40/112/132
f 62/113/133 61/111/131 40/112/132 41/114/134
f 63/115/135 62/113/133 41/114/134 42/116/136
f 64/117/137 63/115/135 42/116/136 43/118/138
s off
f 44/65/139 37/64/140 65/119/141 66/120/142
f 43/75/143 50/76/144 68/121/145 67/122/146
f 51/79/147 44/78/148 66/123/149 69/124/150
f 50/89/151 57/90/152 70/125/153 68/126/154
f 58/93/155 51/92/156 69/127/157 71/128/158
f 57/103/159 64/104/160 72/129/161 70/130/162
f 37/107/163 58/106/164 71/131/165 65/132/166
f 64/117/167 43/118/168 67/133/169 72/134/170
f 65/135/171 73/136/172 74/137/173 66/138/174
f 68/139/175 75/140/176 76/141/177 67/142/178
f 66/138/179 74/137/180 77/143/181 69/144/182
f 70/145/183 78/146/184 75/140/185 68/139/186
f 69/144/187 77/143/188 79/147/189 71/148/190
f 72/149/191 80/150/192 78/146/193 70/145/194
f 71/148/195 79/147/196 73/136/197 65/135/198
f 67/142/199 76/141/200 80/150/201 72/149/202
