# This file uses centimeters as units for non-parametric coordinates.

mtllib Wall.mtl
g default
v -11.408738 0.030616 50.111872
v -11.408738 0.030616 25.174183
v -11.372718 18.153020 50.111872
v -11.372718 18.153020 25.174183
v -11.005133 0.030616 50.111872
v -11.005133 0.030616 25.174183
v -11.005133 18.153020 25.174183
v -11.005133 18.153020 50.111872
vt 0.000000 0.009563
vt 1.000000 0.009563
vt 0.000000 0.990437
vt 1.000000 0.990437
vt 0.000000 0.009563
vt 1.000000 0.009563
vt 1.000000 0.990437
vt 0.000000 0.990437
vt 0.009610 0.009563
vt 0.990390 0.009563
vt 0.990390 0.990437
vt 0.009610 0.990437
vn 1.000000 0.000000 0.000000
vn 1.000000 0.000000 0.000000
vn 1.000000 0.000000 0.000000
vn 1.000000 0.000000 0.000000
vn -0.999998 0.001988 -0.000000
vn -0.999998 0.001988 -0.000000
vn -0.999998 0.001988 -0.000000
vn -0.999998 0.001988 -0.000000
vn 0.000000 -1.000000 0.000000
vn 0.000000 -1.000000 0.000000
vn 0.000000 -1.000000 0.000000
vn 0.000000 -1.000000 0.000000
vn 0.000000 0.000000 -1.000000
vn 0.000000 0.000000 -1.000000
vn 0.000000 0.000000 -1.000000
vn 0.000000 0.000000 -1.000000
vn -0.000000 1.000000 -0.000000
vn -0.000000 1.000000 -0.000000
vn -0.000000 1.000000 -0.000000
vn -0.000000 1.000000 -0.000000
vn -0.000000 -0.000000 1.000000
vn -0.000000 -0.000000 1.000000
vn -0.000000 -0.000000 1.000000
vn -0.000000 -0.000000 1.000000
s off
g Wall
usemtl lambert4SG
f 5/9/1 6/10/2 7/11/3 8/12/4
f 1/5/5 3/8/6 4/7/7 2/6/8
f 1/1/9 2/2/10 6/10/11 5/9/12
f 2/2/13 4/4/14 7/11/15 6/10/16
f 4/4/17 3/3/18 8/12/19 7/11/20
f 3/3/21 1/1/22 5/9/23 8/12/24
